<?xml version="1.0" encoding="utf-8"?>
<!-- Svg Vector Icons : http://www.onlinewebfonts.com/icon -->
<!DOCTYPE svg PUBLIC "-//W3C//DTD SVG 1.1//EN" "http://www.w3.org/Graphics/SVG/1.1/DTD/svg11.dtd">
<svg version="1.1" xmlns="http://www.w3.org/2000/svg" xmlns:xlink="http://www.w3.org/1999/xlink" x="0px" y="0px" viewBox="0 0 1000 1000" enable-background="new 0 0 1000 1000" xml:space="preserve">
<metadata> Svg Vector Icons : http://www.onlinewebfonts.com/icon </metadata>
<g><g><g><path d="M657.6,451.2c25.1,0,45.4,20.3,45.4,45.4c0,25.1-20.3,45.4-45.4,45.4c-25.1,0-45.4-20.3-45.4-45.4C612.1,471.5,632.5,451.2,657.6,451.2z"/><path d="M874.4,482.6l-70.3-8.5c-7.2-26.8-17.7-52.2-31.2-75.7l43.7-55.6c6.6-8.5,5.9-21.7-1.8-29.4L742.3,241c-7.7-7.7-20.9-8.5-29.4-1.8L657.2,283c-23.4-13.6-48.8-24.1-75.5-31.2l-8.5-70.3c-1.3-10.7-11.2-19.5-22-19.5H448.6c-10.9,0-20.8,8.8-22,19.5l-8.4,70.3c-26.8,7.1-52.2,17.7-75.6,31.2L287,239.3c-8.5-6.7-21.7-5.9-29.4,1.8l-72.5,72.5c-7.7,7.6-8.4,20.9-1.7,29.4l43.7,55.6c-13.6,23.5-24.1,48.8-31.2,75.6l-70.3,8.4c-10.7,1.3-19.6,11.2-19.6,22v102.5c0,10.9,8.8,20.7,19.6,22l70.3,8.5l608.2-0.1l70.3-8.5c10.7-1.3,19.6-11.1,19.6-22V504.6C894,493.8,885.2,483.9,874.4,482.6z M433.2,508.4c0,2.5-2,4.7-4.5,5l-16.2,2c-1.6,6.1-4.1,12-7.2,17.4l10.1,12.8c1.6,1.9,1.4,5-0.4,6.8l-16.7,16.7c-1.8,1.8-4.8,1.9-6.8,0.4l-12.8-10.1c-5.4,3.2-11.3,5.5-17.4,7.2l-2,16.2c-0.3,2.5-2.6,4.5-5.1,4.5h-23.6c-2.5,0-4.8-2-5.1-4.5l-2-16.3c-6.2-1.7-12-4.1-17.4-7.2l-12.8,10.1c-2,1.5-5,1.4-6.8-0.4l-16.7-16.7c-1.8-1.8-2-4.8-0.4-6.8l10.1-12.8c-3.1-5.4-5.5-11.3-7.2-17.4l-16.2-2c-2.5-0.3-4.5-2.6-4.5-5.1v-23.6c0-2.5,2-4.7,4.5-5.1l16.2-1.9c1.7-6.2,4.1-12,7.2-17.5l-10.1-12.8c-1.5-2-1.4-5,0.4-6.8l16.7-16.7c1.8-1.8,4.8-2,6.8-0.4l12.8,10.1c5.4-3.1,11.3-5.5,17.4-7.2l2-16.3c0.3-2.5,2.6-4.5,5.1-4.5h23.6c2.5,0,4.8,2,5.1,4.5l2,16.3c6.1,1.6,12,4.1,17.4,7.2l12.8-10.1c2-1.6,5-1.4,6.8,0.4l16.7,16.7c1.8,1.8,2,4.8,0.4,6.8l-10.1,12.8c3.2,5.4,5.6,11.3,7.2,17.5l16.2,1.9c2.5,0.3,4.5,2.6,4.5,5L433.2,508.4L433.2,508.4L433.2,508.4z M748.4,508.4c0,2.5-2,4.7-4.5,5l-16.3,2c-1.7,6.1-4.1,12-7.2,17.4l10,12.8c1.6,1.9,1.4,5-0.4,6.8l-16.7,16.7c-1.8,1.8-4.8,1.9-6.8,0.4l-12.8-10.1c-5.4,3.2-11.2,5.5-17.4,7.2l-1.9,16.2c-0.3,2.5-2.6,4.5-5,4.5h-23.6c-2.5,0-4.8-2-5.1-4.5l-2-16.3c-6.2-1.7-12-4.1-17.4-7.2l-12.8,10.1c-1.9,1.5-5,1.4-6.8-0.4l-16.7-16.7c-1.8-1.8-1.9-4.8-0.4-6.8l10.1-12.8c-3.2-5.4-5.5-11.3-7.2-17.4l-16.2-2c-2.5-0.3-4.5-2.6-4.5-5.1v-23.6c0-2.5,2-4.7,4.5-5.1l16.2-1.9c1.7-6.2,4.1-12,7.2-17.5l-10.1-12.8c-1.6-2-1.4-5,0.4-6.8l16.7-16.7c1.8-1.8,4.8-2,6.8-0.4l12.8,10.1c5.4-3.1,11.3-5.5,17.4-7.2l2-16.3c0.3-2.5,2.6-4.5,5-4.5h23.6c2.5,0,4.8,2,5.1,4.5l1.9,16.3c6.1,1.6,12,4.1,17.4,7.2l12.8-10.1c2-1.6,5-1.4,6.8,0.4l16.7,16.7c1.8,1.8,2,4.8,0.4,6.8l-10,12.8c3.1,5.4,5.5,11.3,7.2,17.5l16.3,1.9c2.5,0.3,4.5,2.6,4.5,5L748.4,508.4L748.4,508.4L748.4,508.4z"/><path d="M342.4,451.2c25.1,0,45.4,20.3,45.4,45.4c0,25.1-20.3,45.4-45.4,45.4c-25.1,0-45.4-20.3-45.4-45.4C297,471.5,317.3,451.2,342.4,451.2z"/><path d="M202,233.3L85.4,132.6c12.2-16.4,11-39.6-3.9-54.5c-16.3-16.3-42.8-16.3-59.2,0c-16.3,16.3-16.3,42.8,0,59.2c14.9,14.9,38.1,16.1,54.4,3.9L177.3,258L202,233.3z"/><path d="M977.8,78.2c-16.4-16.3-42.8-16.3-59.2,0c-14.9,14.9-16.1,38.1-3.9,54.5L798,233.2l24.7,24.7l100.6-116.7c16.4,12.2,39.6,11,54.5-3.9C994.1,121,994.1,94.5,977.8,78.2z"/><path d="M753.9,714.6l5.3-9.2c7-12.1,12.9-24.8,18.2-37.8h-96.6C643.3,728.2,576.3,768.6,500,768.6c-76.3,0-143.2-40.5-180.8-101.1h-96.6c5.2,13.1,11.2,25.7,18.1,37.8l5.3,9.2l-50.3,64c-1.7,2.2-1.5,6.6,0.5,8.6l72.4,72.5c1.9,1.9,6.4,2.2,8.5,0.5l64.1-50.4l9.2,5.3c22.4,13,46.6,23,71.8,29.6l10.3,2.7l9.7,81c0.3,2.8,3.6,5.7,6.4,5.7h102.5c2.8,0,6-2.8,6.4-5.6l9.7-80.9l10.3-2.8c25.2-6.7,49.3-16.7,71.8-29.6l9.2-5.3l64,50.3c2.1,1.7,6.6,1.4,8.6-0.5l72.5-72.5c2-2,2.2-6.2,0.5-8.6L753.9,714.6z"/></g></g><g></g><g></g><g></g><g></g><g></g><g></g><g></g><g></g><g></g><g></g><g></g><g></g><g></g><g></g><g></g></g>
</svg>